<svg xmlns="http://www.w3.org/2000/svg" viewBox="0 0 231.08 159.87"><defs><style>.cls-1{fill:#fff;}.cls-2{fill:#c8a07c;}</style></defs><g id="Layer_2" data-name="Layer 2"><g id="Layer_1-2" data-name="Layer 1"><path class="cls-1" d="M154.34,43.77h0v6H76.74v-6h.07v-.09c0-4.93,3.47-8.93,7.76-8.93s7.75,4,7.75,8.93v.09h0v-.09c0-4.93,3.47-8.93,7.75-8.93s7.75,4,7.75,8.93v.09h0v-.09c0-4.93,3.47-8.93,7.75-8.93s7.76,4,7.76,8.93v.09h0v-.09c0-4.93,3.47-8.93,7.75-8.93s7.75,4,7.75,8.93v.09h0v-.09c0-4.93,3.47-8.93,7.75-8.93s7.76,4,7.76,8.93Z"/><path class="cls-1" d="M138.88,17.27a12.57,12.57,0,0,1-.15,2.87,7.57,7.57,0,0,1-1.62,3.77,4.1,4.1,0,0,1-3.66,1.44,2.92,2.92,0,0,1-2.42-2.9,2.76,2.76,0,0,1,1.61-2.25,3.34,3.34,0,0,1,2.8.09,8.59,8.59,0,0,0-4.22-6.12,12.47,12.47,0,0,0-7.37-1.49,13.49,13.49,0,0,0-8.8,5c-1.53,1.86-2.6,4.1-4.26,5.85a11,11,0,0,1-12.12,2.62,11.31,11.31,0,0,1-6.39-11.7,13.24,13.24,0,0,1,3.46-6.89A20.9,20.9,0,0,1,102,3.07a30.53,30.53,0,0,1,15.78-3,26.5,26.5,0,0,1,14.67,5.5,19,19,0,0,1,3.4,3.54A15.54,15.54,0,0,1,138.88,17.27Z"/><path class="cls-2" d="M199.43,122a41.39,41.39,0,0,0-15.63-3.62c-12.73-.75-27.29,2.56-39.28,6.44-8.27-7-15.5-17.39-24.06-20.74,0-10.89,0-21,0-31.87a4.28,4.28,0,0,1,.11-1,4.39,4.39,0,0,1,3-3.08c.15-.06.35-.19.37-.31a4,4,0,0,0,0-.85c-6.77.05-13.46.05-20.23,0a2.84,2.84,0,0,0,0,.72.67.67,0,0,0,.32.43,4.49,4.49,0,0,1,3.14,4.35c0,11.17,0,21.51,0,32.68a4.31,4.31,0,0,1-2.33,3.93,5.38,5.38,0,0,0-1,.12l.65.08c-.15.07-.29.15-.46.22a.53.53,0,0,0-.3.31,5.73,5.73,0,0,0,0,.83l.54,0c2.54,0,4.94-.08,7.27-.06,11.16,3.11,15.64,10,24.59,16.86-2.17.59-4.74,1.3-7.22,2h0c-5.36,1.5-10.46,2.94-15.21,4.39a92,92,0,0,0-17.25-10.21c-11.22-5-24.07-7.39-36.25-4.21-4,1-9.35,4.07-11.57,8.44a12.75,12.75,0,0,0,1.5,13.68,20.8,20.8,0,0,0,7.71,6,41.39,41.39,0,0,0,15.62,3.62c8.93.52,18.74-.94,27.93-3.2,5.24-1.29,6.74-8.07,2.27-11l-.61-.36-1,.19c-6.45,1.51-12.91,2.92-19.48,3.82a75.73,75.73,0,0,1-18.3.56c-4.49-.5-11.91-1.16-12.82-6.57a6.14,6.14,0,0,1,1.39-4.75,13.07,13.07,0,0,1,4-3.17c10.89-5.94,27.25-3.19,37.82,2a68,68,0,0,1,15.12,9.84l3.45,3.23h0a10.53,10.53,0,0,0,1.36,1.45c6,5.67,10.36,14.42,18.6,16.41a6.08,6.08,0,0,0,6.7-2.56c8.38.11,10.45-5.35,10.78-6.18-.09,0-.12,0,0-.09-12.74,2.29-20.47-3.92-26.84-9.37,1.57-.49,3.18-1,4.44-1.35h0c5.36-1.5,12.46-3.55,17.22-5l9.62-2.34c6.46-1.51,12.91-2.92,19.49-3.82a75.73,75.73,0,0,1,18.3-.56c4.49.5,11.91,1.16,12.82,6.57a6.18,6.18,0,0,1-1.39,4.75,13.07,13.07,0,0,1-4,3.17c-10.89,5.94-24.67,3-34.89-2.81a65,65,0,0,1-8.42-5.78,5.26,5.26,0,0,0-3.39,1.77,3.43,3.43,0,0,0,.56,5.26,49.06,49.06,0,0,0,7.69,4.61c11.14,5.17,22.89,7.14,35.14,4.21,4.81-1.15,9.34-4.07,11.57-8.44a12.75,12.75,0,0,0-1.5-13.68A20.88,20.88,0,0,0,199.43,122Z"/><path class="cls-2" d="M38.51,70.23A22.9,22.9,0,0,0,26.18,64c-3.21-.59-6.45-1-9.68-1.3-5.29-.48-10.58-.82-15.87-1.26l-.57,0a4.59,4.59,0,0,1,0,.48c-.09.53.12.83.62,1.12A5.93,5.93,0,0,1,2.1,64.24a5.74,5.74,0,0,1,1.29,3.85v39.44a7.4,7.4,0,0,1-.05.94,5.22,5.22,0,0,1-2.58,4.08A1.22,1.22,0,0,0,0,114s0,.1,0,.22c.18,0,.33,0,.49,0,6.69-.48,13.39-.88,20.09-1.34a36.67,36.67,0,0,0,9.13-1.64,21.93,21.93,0,0,0,9.15-5.6,24.48,24.48,0,0,0,6.74-15.15,25.84,25.84,0,0,0-1.3-10.79A24.45,24.45,0,0,0,38.51,70.23ZM30.57,95.32a21.62,21.62,0,0,1-3.28,8.4,10.23,10.23,0,0,1-6.45,4.15c-1.13.25-2.31.31-3.47.46-.49.06-.65-.12-.64-.61q0-9.81,0-19.62V68.64c0-.76,0-.77.8-.73a13.84,13.84,0,0,1,6.18,1.5,11.39,11.39,0,0,1,5.07,5.88,32.08,32.08,0,0,1,2.42,11.24A35.08,35.08,0,0,1,30.57,95.32Z"/><path class="cls-2" d="M50.7,94.45a19.05,19.05,0,0,0,5.93,10.49,24.48,24.48,0,0,0,14.47,6.37,31.67,31.67,0,0,0,11.31-.74,25.67,25.67,0,0,0,13.27-7.83A18.36,18.36,0,0,0,100,94.33,30.58,30.58,0,0,0,100.6,88c-.09-1.53-.14-3-.28-4.57a17.64,17.64,0,0,0-.44-2.28,19,19,0,0,0-6.21-10,26.84,26.84,0,0,0-13.85-6.33,32.55,32.55,0,0,0-10.92,0,23.45,23.45,0,0,0-13,6.51,19.22,19.22,0,0,0-5.49,11.07,40,40,0,0,0-.27,7.17A32.83,32.83,0,0,0,50.7,94.45ZM65,79.81a16.68,16.68,0,0,1,4.81-8.5,7.71,7.71,0,0,1,6.22-2,8.38,8.38,0,0,1,4.88,2.34,15.35,15.35,0,0,1,3.85,5.92A27.27,27.27,0,0,1,86.4,87.89a32.73,32.73,0,0,1-.68,7.18,18.21,18.21,0,0,1-3.8,8.06,9.14,9.14,0,0,1-5.18,3.23,7.54,7.54,0,0,1-6.35-1.4,13.89,13.89,0,0,1-4.28-5.76c-1.65-3.64-2-7.49-2-12.1A27.76,27.76,0,0,1,65,79.81Z"/><path class="cls-2" d="M230.74,112.82a5.71,5.71,0,0,1-3.15-5.33q0-19.67,0-39.33a5.76,5.76,0,0,1,3.14-5.39.64.64,0,0,0,.31-.38,8.28,8.28,0,0,0,0-1c-4.53.39-9,.74-13.52,1.08.11.45-.3,1,.32,1.27a4.68,4.68,0,0,1,3.05,4.83c0,2.58,0,5.16,0,7.74V100c0,.2,0,.4,0,.6a.91.91,0,0,1-.25-.39q-3.56-9.66-7.12-19-3.39-8.88-6.76-17.49a.71.71,0,0,0-.86-.52q-8.51.59-17,1l-.63,0a3.44,3.44,0,0,0,0,.8.61.61,0,0,0,.32.44A4.51,4.51,0,0,1,191.66,70q0,18.08,0,36.14a4.66,4.66,0,0,1-3.16,4.61c-.12,0-.28.17-.29.27a7.06,7.06,0,0,0,0,.92c4.58.18,9.08.38,13.6.59,0-.1,0-.16,0-.23a1.57,1.57,0,0,0,0-.53.85.85,0,0,0-.32-.49,5.05,5.05,0,0,1-3-4.71q0-14.51,0-29c0-.16,0-.32,0-.48a8.54,8.54,0,0,1,.7,1.47q4.92,12.56,9.86,25.69a14.79,14.79,0,0,0,13,9.41c2.8.11,5.6.33,8.4.5.2,0,.58-.13.57-.18C231,113.6,231.3,113.13,230.74,112.82Z"/><path class="cls-2" d="M138.31,110.75l11.84.18c.1,0,.21,0,.31,0,.31,0,.42-.08.43-.35a1.27,1.27,0,0,0-.6-1.28,3.07,3.07,0,0,1-1.12-3.71c.68-2.3,1.46-4.58,2.17-6.88.12-.4.3-.52.77-.51,4.07,0,8.14.08,12.21.09.49,0,.65.17.76.54.73,2.41,1.48,4.82,2.22,7.25a3.09,3.09,0,0,1-1.55,3.75.65.65,0,0,0-.3.38,7.26,7.26,0,0,0,0,1.06l.61,0q9.35.24,18.68.6a2.29,2.29,0,0,0,.37,0,.37.37,0,0,0,.21-.09.93.93,0,0,0-.45-1.18,6.78,6.78,0,0,1-4.28-4.35c-1.49-4.72-2.86-9.44-4.28-14.11s-2.77-9.2-4.16-13.75c-1.3-4.27-2.62-8.52-3.92-12.74-.12-.38-.31-.49-.75-.47-3.77.16-7.54.27-11.31.38l-4.25.12a.72.72,0,0,0-.44.14,1.08,1.08,0,0,0,.31,1.17,3.19,3.19,0,0,1,1.51,3.7c-.68,2.26-1.38,4.5-2.08,6.75q-1.51,4.89-3,9.74c-.91,2.93-1.82,5.84-2.73,8.75s-1.86,5.75-2.7,8.63a7,7,0,0,1-4.84,5,.48.48,0,0,0-.27.27,6.09,6.09,0,0,0,0,.86Zm19.87-34.08h.15c1.75,5.64,3.51,11.31,5.29,17.09l-10.73,0C154.67,88,156.42,82.37,158.18,76.67Z"/></g></g></svg>