<?xml version="1.0" encoding="UTF-8" standalone="no"?><!DOCTYPE svg PUBLIC "-//W3C//DTD SVG 1.1//EN" "http://www.w3.org/Graphics/SVG/1.1/DTD/svg11.dtd"><svg width="100%" height="100%" viewBox="0 0 2250 2250" version="1.1" xmlns="http://www.w3.org/2000/svg" xmlns:xlink="http://www.w3.org/1999/xlink" xml:space="preserve" xmlns:serif="http://www.serif.com/" style="fill-rule:evenodd;clip-rule:evenodd;stroke-linejoin:round;stroke-miterlimit:2;"><g><path d="M287.813,1946.63l-0,-330.495l75.46,0l1.46,105.152l-10.445,-23.831c4.873,-16.449 12.885,-31.363 24.036,-44.742c11.151,-13.378 24.148,-23.969 38.99,-31.772c14.842,-7.803 30.275,-11.705 46.299,-11.705c7.245,0 14.107,0.593 20.587,1.779c6.481,1.185 11.811,2.683 15.992,4.492l-20.274,83.829c-4.879,-2.234 -10.628,-4.151 -17.246,-5.752c-6.617,-1.6 -13.27,-2.4 -19.96,-2.4c-10.596,-0 -20.597,1.985 -30.004,5.957c-9.407,3.972 -17.628,9.512 -24.663,16.619c-7.036,7.107 -12.61,15.399 -16.722,24.874c-4.112,9.476 -6.168,19.926 -6.168,31.352l-0,176.643l-77.342,-0Z" style="fill:#002b62;fill-rule:nonzero;"/><path d="M715.923,1946.63l-0,-211.135c-0,-17.978 -5.958,-32.157 -17.873,-42.537c-11.915,-10.38 -27.349,-15.57 -46.3,-15.57c-17.696,-0 -33.618,3.518 -47.764,10.553c-14.146,7.036 -27.213,18.01 -39.2,32.924l-48.073,-47.455c19.787,-21.042 41.596,-36.998 65.427,-47.868c23.83,-10.87 49.611,-16.305 77.342,-16.305c26.065,0 48.643,4.181 67.734,12.543c19.091,8.361 33.863,20.765 44.315,37.211c10.452,16.445 15.678,36.721 15.678,60.826l0,226.813l-71.286,-0Zm-94.48,6.271c-21.185,0 -40.174,-4.181 -56.966,-12.542c-16.792,-8.362 -30.1,-19.964 -39.925,-34.806c-9.825,-14.842 -14.737,-32.297 -14.737,-52.365c-0,-17.422 3.135,-32.752 9.406,-45.99c6.272,-13.239 15.574,-24.213 27.907,-32.924c12.334,-8.711 27.803,-15.331 46.408,-19.858c18.604,-4.527 40.1,-6.79 64.486,-6.79l94.695,-0l-5.644,55.392l-93.647,0c-11.288,0 -21.322,1.011 -30.102,3.033c-8.78,2.022 -16.237,5.158 -22.371,9.407c-6.134,4.25 -10.698,9.231 -13.693,14.943c-2.996,5.713 -4.493,12.473 -4.493,20.279c-0,8.224 2.09,15.402 6.271,21.533c4.181,6.131 9.859,10.868 17.035,14.213c7.176,3.345 15.504,5.017 24.982,5.017c13.66,0 26.656,-2.334 38.99,-7.001c12.333,-4.668 23.342,-11.182 33.027,-19.544c9.684,-8.362 17.244,-17.768 22.679,-28.221l15.884,43.056c-8.78,14.496 -19.545,27.179 -32.297,38.049c-12.751,10.87 -26.548,19.441 -41.39,25.712c-14.842,6.272 -30.344,9.407 -46.505,9.407Z" style="fill:#002b62;fill-rule:nonzero;"/><path d="M936.044,1946.63l-111.207,-330.495l78.812,-0.421l74,236.014l-14.218,-1.675l81.105,-183.953l45.574,-0l82.987,184.58l-16.306,1.254l74.422,-235.799l78.812,0l-111.843,330.495l-54.345,-0l-85.289,-199.004l12.327,1.666l-80.683,197.338l-54.148,-0Z" style="fill:#002b62;fill-rule:nonzero;"/><path d="M1539.34,1946.63l0,-211.135c0,-17.978 -5.957,-32.157 -17.873,-42.537c-11.915,-10.38 -27.348,-15.57 -46.299,-15.57c-17.697,-0 -33.618,3.518 -47.765,10.553c-14.146,7.036 -27.212,18.01 -39.2,32.924l-48.073,-47.455c19.787,-21.042 41.596,-36.998 65.427,-47.868c23.831,-10.87 49.611,-16.305 77.342,-16.305c26.065,0 48.643,4.181 67.734,12.543c19.092,8.361 33.864,20.765 44.316,37.211c10.452,16.445 15.678,36.721 15.678,60.826l-0,226.813l-71.287,-0Zm-94.48,6.271c-21.185,0 -40.173,-4.181 -56.965,-12.542c-16.792,-8.362 -30.101,-19.964 -39.926,-34.806c-9.825,-14.842 -14.737,-32.297 -14.737,-52.365c-0,-17.422 3.136,-32.752 9.407,-45.99c6.271,-13.239 15.573,-24.213 27.907,-32.924c12.333,-8.711 27.802,-15.331 46.407,-19.858c18.605,-4.527 40.1,-6.79 64.486,-6.79l94.696,-0l-5.644,55.392l-93.648,0c-11.288,0 -21.322,1.011 -30.102,3.033c-8.779,2.022 -16.236,5.158 -22.37,9.407c-6.134,4.25 -10.699,9.231 -13.694,14.943c-2.995,5.713 -4.493,12.473 -4.493,20.279c0,8.224 2.091,15.402 6.271,21.533c4.181,6.131 9.86,10.868 17.036,14.213c7.176,3.345 15.503,5.017 24.982,5.017c13.659,0 26.656,-2.334 38.989,-7.001c12.334,-4.668 23.343,-11.182 33.027,-19.544c9.685,-8.362 17.244,-17.768 22.68,-28.221l15.883,43.056c-8.779,14.496 -19.545,27.179 -32.297,38.049c-12.751,10.87 -26.548,19.441 -41.39,25.712c-14.842,6.272 -30.343,9.407 -46.505,9.407Z" style="fill:#002b62;fill-rule:nonzero;"/><path d="M1685.05,1946.63l-0,-330.495l75.039,0l1.254,67.73l-14.424,7.525c4.325,-14.77 12.514,-28.322 24.566,-40.655c12.053,-12.333 26.441,-22.333 43.164,-29.999c16.723,-7.666 34.005,-11.499 51.845,-11.499c25.085,0 46.06,4.983 62.924,14.948c16.863,9.966 29.51,25.017 37.941,45.153c8.43,20.137 12.645,45.325 12.645,75.564l0,201.728l-76.715,-0l0,-196.29c0,-17.004 -2.299,-31.08 -6.898,-42.228c-4.599,-11.148 -11.638,-19.3 -21.117,-24.458c-9.479,-5.157 -21.253,-7.387 -35.325,-6.688c-11.288,0 -21.671,1.777 -31.15,5.331c-9.479,3.554 -17.736,8.571 -24.771,15.051c-7.036,6.48 -12.505,13.972 -16.409,22.474c-3.903,8.502 -5.854,17.77 -5.854,27.804l-0,199.004l-76.715,-0Z" style="fill:#002b62;fill-rule:nonzero;"/></g><g><path d="M1541.53,475.753l210.05,-0c-2.331,-0 -0.965,0.965 0,1.2l0,839.002l-208.85,-0c-0.014,-0.057 -0.03,-0.114 -0.049,-0.173c0.29,-0.173 0.072,-0.447 -0.303,-0.676c-0.228,-0.374 -0.502,-0.593 -0.676,-0.303c-0.058,-0.018 -0.116,-0.034 -0.172,-0.048l-0,-839.002Z" style="fill:#023e8a;"/><path d="M1751.58,445.746c7.959,-0 15.591,3.161 21.219,8.789c5.627,5.627 8.788,13.259 8.788,21.218l0,840.202c0,7.958 -3.161,15.591 -8.788,21.218c-5.628,5.628 -13.26,8.789 -21.219,8.789l-210.05,0c-7.959,0 -15.591,-3.161 -21.219,-8.789c-5.627,-5.627 -8.789,-13.26 -8.788,-21.218l-0,-840.202c-0.001,-7.959 3.161,-15.591 8.788,-21.218c5.628,-5.628 13.26,-8.789 21.219,-8.789l210.05,-0Zm-210.05,30.007l-0,839.002c0.056,0.014 0.114,0.03 0.172,0.048c0.174,-0.29 0.448,-0.071 0.676,0.303c0.375,0.229 0.593,0.503 0.303,0.676c0.019,0.059 0.035,0.116 0.049,0.173l208.85,-0l0,-839.002c-0.965,-0.235 -2.331,-1.2 0,-1.2l-210.05,-0Z"/></g><g><path d="M705.554,475.753l210.05,-0c-2.331,-0 -0.965,0.965 0,1.2l0,839.002l-208.85,-0c-0.235,-0.966 -1.2,-2.331 -1.2,-0l-0,-840.202Z" style="fill:#00b4d8;"/><path d="M915.604,445.746c7.959,-0 15.591,3.161 21.219,8.789c5.627,5.627 8.789,13.259 8.788,21.218l0,840.202c0.001,7.958 -3.161,15.591 -8.788,21.218c-5.628,5.628 -13.26,8.789 -21.219,8.789l-210.05,0c-7.959,0 -15.591,-3.161 -21.219,-8.789c-5.627,-5.627 -8.788,-13.26 -8.788,-21.218l-0,-840.202c-0,-7.959 3.161,-15.591 8.788,-21.218c5.628,-5.628 13.26,-8.789 21.219,-8.789l210.05,-0Zm-210.05,30.007l-0,840.202c-0,-2.331 0.965,-0.966 1.2,-0l208.85,-0l0,-839.002c-0.965,-0.235 -2.331,-1.2 0,-1.2l-210.05,-0Z"/></g><g><path d="M1606.36,1277.88c13.06,-32.421 48.826,-120.944 62.752,-155.412c0.048,0.018 0.096,0.037 0.145,0.054c15.246,5.493 32.33,8.531 50.358,8.531c25.524,0 64.371,-10.433 81.461,-19.665c34.334,-18.546 55.694,-37.776 69.295,-61.945c13.351,-23.726 19.191,-52.529 21.296,-91.402c1.436,-26.529 -2.781,-61.84 -7.094,-84.986c-0.032,-0.172 -0.067,-0.343 -0.105,-0.514c45.288,-0.228 159.741,-0.656 196.251,-0.793c7.381,33.479 2.496,73.3 2.719,111.459c1.01,172.855 -148.982,332.746 -328.173,332.746c-53.674,-0 -104.315,-13.751 -148.905,-38.073Z" style="fill:#00b4d8;"/><path d="M1786.82,1084.99c28.184,-15.225 46.24,-30.42 57.405,-50.26c11.414,-20.284 15.684,-45.074 17.483,-78.308c1.312,-24.221 -2.648,-56.421 -6.582,-77.615c-1.893,-8.765 0.241,-17.924 5.827,-24.954c5.657,-7.119 14.242,-11.282 23.316,-11.316c45.265,-0.227 159.83,-0.656 196.35,-0.793c13.709,-0.052 25.711,9.194 29.158,22.463c0.042,0.162 0.081,0.324 0.117,0.486c7.969,35.503 3.319,77.801 3.556,118.342c1.102,188.596 -162.67,362.928 -358.18,362.928c-58.914,0 -114.497,-15.1 -163.426,-41.82c-0.037,-0.021 -0.074,-0.041 -0.111,-0.062c-13.205,-7.356 -18.865,-23.394 -13.208,-37.395c13.058,-32.414 48.84,-120.979 62.771,-155.459c6.073,-15.023 22.973,-22.506 38.233,-16.898c12.14,4.36 25.745,6.72 40.091,6.72c21.044,0 53.109,-8.448 67.2,-16.059Zm-180.467,192.923l-0,-0c-0,-0 -0,-0 -0,-0Zm0.012,-0.03c44.59,24.322 95.231,38.073 148.905,38.073c179.191,-0 329.183,-159.891 328.173,-332.746c-0.223,-38.159 4.662,-77.98 -2.719,-111.459c-36.51,0.137 -150.963,0.565 -196.251,0.793c0.038,0.171 0.073,0.342 0.105,0.514c4.313,23.146 8.53,58.457 7.094,84.986c-2.105,38.873 -7.945,67.676 -21.296,91.402c-13.601,24.169 -34.961,43.399 -69.295,61.945c-17.09,9.232 -55.937,19.665 -81.461,19.665c-18.028,0 -35.112,-3.038 -50.358,-8.531c-0.049,-0.017 -0.097,-0.036 -0.145,-0.054c-13.926,34.468 -49.692,122.991 -62.752,155.412Zm278.035,-405.339l0,-0c0,-0 0,-0 0,-0Z"/></g><g><circle cx="472.998" cy="655.382" r="105.025" style="fill:#90e0ef;"/><path d="M472.998,535.353c66.246,0 120.029,53.783 120.029,120.029c-0,66.246 -53.783,120.029 -120.029,120.029c-66.246,-0 -120.029,-53.783 -120.029,-120.029c-0,-66.246 53.783,-120.029 120.029,-120.029Zm-0,30.007c-49.684,0 -90.022,40.338 -90.022,90.022c0,49.684 40.338,90.022 90.022,90.022c49.684,-0 90.021,-40.338 90.021,-90.022c0,-49.684 -40.337,-90.022 -90.021,-90.022Z"/><path d="M578.023,973.093l0,-105.801c0,-8.286 6.717,-15.004 15.004,-15.004l187.545,0c8.286,0 15.003,6.718 15.003,15.004l0,161.651c0,166.687 -144.542,302.015 -322.577,302.015c-178.036,0 -322.578,-135.328 -322.578,-302.015l0,-161.651c0,-8.286 6.718,-15.004 15.004,-15.004l187.545,0c8.286,0 15.004,6.718 15.004,15.004l-0,105.801c-0,20.517 5.896,39.669 16.085,55.85l0.306,0c18.649,29.265 51.391,48.692 88.634,48.692c37.243,0 69.984,-19.427 88.634,-48.692l0.306,0c10.189,-16.181 16.085,-35.333 16.085,-55.85Z" style="fill:#90e0ef;"/><path d="M387.758,1037.25c-0.894,1.974 -1.753,3.668 -2.384,4.859l11.642,-21.224c15.989,25.089 44.053,41.752 75.982,41.752c31.928,-0 59.993,-16.663 75.981,-41.752c-2.943,4.619 -3.136,10.476 -0.501,15.279c2.634,4.802 7.676,7.788 13.154,7.788c0,-0 -0,-0.001 -0.001,-0.003c-5.344,-0.109 -10.237,-3.057 -12.828,-7.75c-2.64,-4.782 -2.472,-10.622 0.439,-15.245c8.73,-13.865 13.777,-30.276 13.777,-47.856l0,-105.801c0.001,-16.573 13.435,-30.007 30.008,-30.007l187.545,-0c16.572,-0 30.007,13.434 30.007,30.007l0,161.651c0,174.687 -151.001,317.019 -337.581,317.019c-186.58,0 -337.581,-142.332 -337.581,-317.019l-0,-161.651c-0,-16.573 13.434,-30.007 30.007,-30.007l187.545,-0c16.572,-0 30.007,13.434 30.007,30.007l0,105.801c0,17.58 5.048,33.991 13.778,47.856l-8.996,16.296Zm185.011,2.081c-21.542,32.144 -58.205,53.313 -99.771,53.313c-41.566,-0 -78.229,-21.169 -99.771,-53.313c-0.694,-0.723 -1.32,-1.522 -1.866,-2.388c-11.647,-18.499 -18.392,-40.39 -18.392,-63.845c-0,-0 0,-104.418 -0,-105.787c-0.04,-0.004 -0.081,-0.006 -0.121,-0.006c-5.371,-0.008 -187.424,-0.008 -187.424,-0.008l-0,161.651c-0,158.688 138.082,287.012 307.574,287.012c169.491,-0 307.574,-128.324 307.574,-287.012l-0,-161.651l-187.545,-0l-0,105.801c-0,23.455 -6.745,45.346 -18.393,63.845c-0.545,0.866 -1.172,1.665 -1.865,2.388Z"/></g><g><path d="M1130.45,558.135c-20.118,-0 -36.008,-17.708 -36.008,-39.009c-0,-7.045 1.724,-13.666 4.774,-19.401c1.06,-1.993 2.279,-3.878 3.641,-5.635c0.262,-0.339 0.51,-0.688 0.742,-1.047l95.251,-147.385c0.031,-0.048 0.062,-0.096 0.092,-0.145c0.255,-0.404 0.515,-0.807 0.779,-1.208c7.233,-10.595 21.626,-17.199 37.86,-17.199c15.179,-0 28.713,5.797 36.36,15.188c1.296,1.592 2.408,3.285 3.296,5.069c0.253,0.508 0.534,1.001 0.842,1.477l93.406,144.105c0.236,0.365 0.488,0.719 0.755,1.062c1.388,1.781 2.629,3.694 3.706,5.718c3.049,5.735 4.774,12.356 4.774,19.401c-0,21.301 -15.891,39.009 -36.009,39.009l-214.261,-0Z" style="fill:#0077b6;"/><path d="M1130.45,588.142c-36.193,0 -66.016,-30.695 -66.016,-69.016c-0,-12.165 3.021,-23.589 8.288,-33.491c1.763,-3.316 3.779,-6.462 6,-9.385c0,0 94.885,-146.818 94.845,-146.755c0.398,-0.632 0.805,-1.26 1.219,-1.885c0.031,-0.047 0.062,-0.094 0.094,-0.141c12.036,-17.728 35.46,-30.37 62.7,-30.37c25.097,-0 46.986,10.721 59.629,26.248c2.523,3.098 4.695,6.393 6.475,9.828c0,0 92.647,142.936 92.63,142.914c2.282,2.986 4.333,6.178 6.124,9.546c5.267,9.902 8.288,21.326 8.288,33.491c-0,38.321 -29.823,69.016 -66.016,69.016l-214.26,0Zm-0.001,-30.007l214.261,-0c20.118,-0 36.009,-17.708 36.009,-39.009c-0,-7.045 -1.725,-13.666 -4.774,-19.401c-1.077,-2.024 -2.318,-3.937 -3.706,-5.718c-0.267,-0.343 -0.519,-0.697 -0.755,-1.062l-93.406,-144.105c-0.308,-0.476 -0.589,-0.969 -0.842,-1.477c-0.888,-1.784 -2,-3.477 -3.296,-5.069c-7.647,-9.391 -21.181,-15.188 -36.36,-15.188c-16.234,-0 -30.627,6.604 -37.86,17.199c-0.264,0.401 -0.524,0.804 -0.779,1.208c-0.03,0.049 -0.061,0.097 -0.092,0.145l-95.251,147.385c-0.232,0.359 -0.48,0.708 -0.742,1.047c-1.362,1.757 -2.581,3.642 -3.641,5.635c-3.05,5.735 -4.774,12.356 -4.774,19.401c-0,21.301 15.89,39.009 36.008,39.009Z"/><path d="M1361.43,724.682c49.733,31.549 82.689,97.04 90.082,181.076c5.143,58.463 5.518,121.366 -21.243,189.854c-37.249,95.333 -111.638,168.498 -174.5,200.324c-35.743,21.806 -82.485,35.022 -133.61,35.022c-55.86,0 -128.042,-18.669 -186.454,-47.095c-4.875,-2.416 -7.066,-8.178 -5.028,-13.222c12.121,-30.031 51.587,-127.711 66.094,-163.617c1.208,-2.988 3.732,-5.249 6.835,-6.123c3.103,-0.873 6.435,-0.261 9.025,1.659c16.764,12.482 38.21,19.955 61.565,19.955c35.753,0 67.032,-17.514 83.971,-43.591c-57.523,-21.359 -103.014,-67.565 -123.403,-125.55l-0.064,0.026c-0.363,-1.101 -0.717,-2.207 -1.062,-3.316c-6.835,-20.541 -10.536,-42.509 -10.536,-65.334c-0,-114.274 92.776,-207.05 207.05,-207.05c49.812,0 95.539,17.629 131.278,46.982Zm-128.288,136.443c-19.045,-0 -34.508,15.462 -34.508,34.508c-0,19.046 15.463,34.508 34.508,34.508c19.046,0 34.509,-15.462 34.509,-34.508c-0,-19.046 -15.463,-34.508 -34.509,-34.508Z" style="fill:#0077b6;"/><path d="M1021.11,959.756c-0.25,-0.534 -0.47,-1.087 -0.658,-1.657c-0.374,-1.136 -0.74,-2.276 -1.076,-3.357c-7.313,-22.008 -11.277,-45.541 -11.277,-69.992c0,-122.554 99.499,-222.053 222.054,-222.053c53.092,-0 101.857,18.674 140.082,49.804l0.019,0.014c52.562,33.801 88.367,102.832 96.205,191.928c5.327,60.556 5.505,125.688 -22.214,196.629c-38.647,98.909 -115.889,174.735 -181.156,207.974c-37.779,22.909 -87.037,36.916 -140.929,36.916c-56.527,0 -129.234,-18.333 -188.95,-46.653c-0.044,-0.021 -0.087,-0.041 -0.13,-0.062c-14.178,-6.891 -20.6,-23.584 -14.698,-38.191c13.005,-32.251 47.065,-116.552 62.317,-154.301c3.368,-8.332 10.294,-14.718 18.872,-17.398c8.578,-2.68 17.906,-1.374 25.418,3.559c0.031,0.02 0.061,0.04 0.091,0.06c13.757,9.176 30.753,14.536 49.117,14.536c23.329,-0 44.486,-8.647 59.553,-22.703c-52.103,-25.175 -92.902,-70.111 -112.64,-125.053Zm27.762,-11.292l0.047,-0.067c18.914,53.788 61.112,96.649 114.472,116.461c4.27,1.586 7.589,5.027 9.021,9.352c1.431,4.325 0.82,9.066 -1.662,12.886c-19.502,30.024 -55.391,50.423 -96.553,50.423c-24.601,-0 -47.339,-7.288 -65.677,-19.521c-15.248,37.74 -49.297,122.012 -62.304,154.268c55.645,26.363 123.291,43.689 175.944,43.689c48.121,-0 92.153,-12.302 125.796,-32.827c0.338,-0.206 0.684,-0.399 1.037,-0.578c60.329,-30.543 131.554,-100.907 167.302,-192.399c25.803,-66.035 25.231,-126.709 20.272,-183.078c-6.909,-78.535 -36.695,-140.238 -83.173,-169.722c-0.517,-0.328 -1.013,-0.687 -1.486,-1.075c-33.146,-27.224 -75.557,-43.572 -121.755,-43.572c-105.994,0 -192.047,86.053 -192.047,192.046c0,21.17 3.43,41.545 9.769,60.597c0.031,0.094 0.061,0.187 0.09,0.281c0.295,0.948 0.598,1.893 0.907,2.836Zm184.271,-102.343c27.327,0 49.512,22.186 49.512,49.512c0,27.326 -22.185,49.512 -49.512,49.512c-27.326,-0 -49.512,-22.186 -49.512,-49.512c0,-27.326 22.186,-49.512 49.512,-49.512Zm0,30.007c-10.765,0 -19.504,8.74 -19.504,19.505c-0,10.765 8.739,19.505 19.504,19.505c10.765,-0 19.505,-8.74 19.505,-19.505c-0,-10.765 -8.74,-19.505 -19.505,-19.505Z"/></g></svg>